<svg width="24" height="24" viewBox="0 0 24 24" fill="none" xmlns="http://www.w3.org/2000/svg">
<path d="M18.3 18.4H5.7V19.3C5.7 19.5387 5.60518 19.7676 5.4364 19.9364C5.26761 20.1052 5.03869 20.2 4.8 20.2H3.9C3.66131 20.2 3.43239 20.1052 3.2636 19.9364C3.09482 19.7676 3 19.5387 3 19.3V10.3L5.232 5.0908C5.37089 4.7668 5.60186 4.49071 5.89625 4.2968C6.19064 4.10289 6.53549 3.99969 6.888 4H17.112C17.4642 4.00004 17.8087 4.10341 18.1027 4.2973C18.3967 4.49119 18.6274 4.76708 18.7662 5.0908L21 10.3V19.3C21 19.5387 20.9052 19.7676 20.7364 19.9364C20.5676 20.1052 20.3387 20.2 20.1 20.2H19.2C18.9613 20.2 18.7324 20.1052 18.5636 19.9364C18.3948 19.7676 18.3 19.5387 18.3 19.3V18.4ZM19.2 12.1H4.8V16.6H19.2V12.1ZM4.9584 10.3H19.0416L17.1129 5.8H6.888L4.9593 10.3H4.9584ZM7.05 15.7C6.69196 15.7 6.34858 15.5578 6.09541 15.3046C5.84223 15.0514 5.7 14.708 5.7 14.35C5.7 13.992 5.84223 13.6486 6.09541 13.3954C6.34858 13.1422 6.69196 13 7.05 13C7.40804 13 7.75142 13.1422 8.00459 13.3954C8.25777 13.6486 8.4 13.992 8.4 14.35C8.4 14.708 8.25777 15.0514 8.00459 15.3046C7.75142 15.5578 7.40804 15.7 7.05 15.7ZM16.95 15.7C16.592 15.7 16.2486 15.5578 15.9954 15.3046C15.7422 15.0514 15.6 14.708 15.6 14.35C15.6 13.992 15.7422 13.6486 15.9954 13.3954C16.2486 13.1422 16.592 13 16.95 13C17.308 13 17.6514 13.1422 17.9046 13.3954C18.1578 13.6486 18.3 13.992 18.3 14.35C18.3 14.708 18.1578 15.0514 17.9046 15.3046C17.6514 15.5578 17.308 15.7 16.95 15.7Z" fill="#525866"/>
</svg>
