<svg width="28" height="28" viewBox="0 0 28 28" fill="none" xmlns="http://www.w3.org/2000/svg">
<g id="delete-back-2-line">
<path id="Vector" d="M8.26211 4.5498H23.4504C23.7288 4.5498 23.9959 4.66043 24.1928 4.85734C24.3897 5.05426 24.5004 5.32133 24.5004 5.5998V22.3998C24.5004 22.6783 24.3897 22.9454 24.1928 23.1423C23.9959 23.3392 23.7288 23.4498 23.4504 23.4498H8.26211C8.08929 23.4498 7.91913 23.4072 7.76674 23.3257C7.61435 23.2442 7.48443 23.1263 7.38851 22.9826L1.78886 14.5826C1.67374 14.41 1.6123 14.2072 1.6123 13.9998C1.6123 13.7924 1.67374 13.5896 1.78886 13.4171L7.38851 5.01705C7.48443 4.87329 7.61435 4.75543 7.76674 4.67392C7.91913 4.59241 8.08929 4.54978 8.26211 4.5498ZM8.82386 6.6498L3.92456 13.9998L8.82386 21.3498H22.4004V6.6498H8.82386ZM15.0504 12.5151L18.0198 9.54465L19.5055 11.0304L16.5351 13.9998L19.5055 16.9692L18.0198 18.455L15.0504 15.4845L12.081 18.455L10.5952 16.9692L13.5657 13.9998L10.5952 11.0304L12.081 9.54465L15.0504 12.5151Z" fill="#525866"/>
</g>
</svg>
