<svg width="16" height="16" viewBox="0 0 16 16" fill="none" xmlns="http://www.w3.org/2000/svg">
<g id="file-list-3-line">
<path id="Vector" d="M12.2 14H3.8C3.32261 14 2.86477 13.8104 2.52721 13.4728C2.18964 13.1352 2 12.6774 2 12.2V2.6C2 2.44087 2.06321 2.28826 2.17574 2.17574C2.28826 2.06321 2.44087 2 2.6 2H11C11.1591 2 11.3117 2.06321 11.4243 2.17574C11.5368 2.28826 11.6 2.44087 11.6 2.6V9.8H14V12.2C14 12.6774 13.8104 13.1352 13.4728 13.4728C13.1352 13.8104 12.6774 14 12.2 14ZM11.6 11V12.2C11.6 12.3591 11.6632 12.5117 11.7757 12.6243C11.8883 12.7368 12.0409 12.8 12.2 12.8C12.3591 12.8 12.5117 12.7368 12.6243 12.6243C12.7368 12.5117 12.8 12.3591 12.8 12.2V11H11.6ZM10.4 12.8V3.2H3.2V12.2C3.2 12.3591 3.26321 12.5117 3.37574 12.6243C3.48826 12.7368 3.64087 12.8 3.8 12.8H10.4ZM4.4 5H9.2V6.2H4.4V5ZM4.4 7.4H9.2V8.6H4.4V7.4ZM4.4 9.8H7.4V11H4.4V9.8Z" fill="#525866"/>
</g>
</svg>
