<svg width="24" height="24" viewBox="0 0 24 24" fill="none" xmlns="http://www.w3.org/2000/svg">
<path d="M18.3 20.1H5.7C5.4613 20.1 5.23239 20.0052 5.0636 19.8364C4.89482 19.6676 4.8 19.4387 4.8 19.2V11.1H2.1L11.3943 2.65083C11.56 2.50006 11.776 2.4165 12 2.4165C12.224 2.4165 12.44 2.50006 12.6057 2.65083L21.9 11.1H19.2V19.2C19.2 19.4387 19.1052 19.6676 18.9364 19.8364C18.7676 20.0052 18.5387 20.1 18.3 20.1ZM12.9 18.3H17.4V9.44133L12 4.53273L6.6 9.44133V18.3H11.1V12.9H12.9V18.3Z" fill="#525866"/>
</svg>
