<svg width="16" height="16" viewBox="0 0 16 16" fill="none" xmlns="http://www.w3.org/2000/svg">
<g id="magic-fill">
<path id="Vector" d="M9.93439 10.1049L8.60659 12.8949C8.58147 12.9476 8.54389 12.9935 8.49709 13.0285C8.45029 13.0635 8.39568 13.0865 8.33797 13.0957C8.28026 13.1048 8.22119 13.0998 8.16586 13.081C8.11054 13.0622 8.06061 13.0303 8.02039 12.9879L5.89519 10.7445C5.83842 10.6846 5.7628 10.6461 5.68099 10.6353L2.61679 10.2345C2.5589 10.2269 2.50373 10.2053 2.45605 10.1716C2.40836 10.1379 2.36959 10.0931 2.34307 10.041C2.31656 9.98902 2.30309 9.93132 2.30385 9.87293C2.3046 9.81454 2.31955 9.75722 2.34739 9.70589L3.82459 6.99149C3.86386 6.9189 3.877 6.83501 3.86179 6.75389L3.29599 3.71609C3.28525 3.65859 3.28868 3.59934 3.30598 3.54346C3.32329 3.48759 3.35395 3.43677 3.39531 3.39541C3.43667 3.35405 3.48749 3.32339 3.54337 3.30608C3.59924 3.28878 3.65849 3.28535 3.71599 3.29609L6.75379 3.86189C6.83492 3.87709 6.9188 3.86396 6.99139 3.82469L9.70579 2.34749C9.75716 2.31964 9.81454 2.3047 9.87297 2.30398C9.9314 2.30326 9.98912 2.31678 10.0412 2.34336C10.0932 2.36994 10.138 2.40878 10.1717 2.45655C10.2053 2.50431 10.2269 2.55955 10.2344 2.61749L10.6352 5.68109C10.646 5.7629 10.6845 5.83851 10.7444 5.89529L12.9878 8.02049C13.0302 8.06071 13.0621 8.11063 13.0809 8.16596C13.0997 8.22129 13.1047 8.28036 13.0956 8.33807C13.0864 8.39577 13.0634 8.45039 13.0284 8.49719C12.9934 8.54399 12.9475 8.58157 12.8948 8.60669L10.1048 9.93449C10.0301 9.97003 9.96993 10.0302 9.93439 10.1049ZM10.4126 11.2611L11.261 10.4127L13.8068 12.9579L12.9578 13.8069L10.4126 11.2611Z" fill="white"/>
</g>
</svg>
