<svg width="24" height="24" viewBox="0 0 24 24" fill="none" xmlns="http://www.w3.org/2000/svg">
<path d="M20.1 13.1178V19.2H21V21H3.00001V19.2H3.90001V13.1178C3.34594 12.748 2.89175 12.2471 2.57774 11.6596C2.26374 11.0721 2.09964 10.4161 2.10001 9.75C2.10001 9.0057 2.30161 8.2884 2.66971 7.6773L5.11051 3.45C5.1895 3.31319 5.30311 3.19957 5.43992 3.12058C5.57673 3.04159 5.73193 3 5.88991 3H18.111C18.269 3 18.4242 3.04159 18.561 3.12058C18.6978 3.19957 18.8114 3.31319 18.8904 3.45L21.3222 7.6638C21.8591 8.55558 22.0317 9.61998 21.8041 10.6357C21.5765 11.6515 20.9661 12.5404 20.1 13.1178ZM18.3 13.7748C17.6812 13.8442 17.0547 13.7699 16.4693 13.5576C15.8839 13.3453 15.3555 13.0008 14.925 12.5508C14.5472 12.946 14.0932 13.2605 13.5905 13.4753C13.0878 13.6902 12.5467 13.8009 12 13.8009C11.4534 13.8012 10.9124 13.6907 10.4097 13.4762C9.90701 13.2616 9.45297 12.9474 9.07501 12.5526C8.64447 13.0024 8.11594 13.3468 7.53056 13.5589C6.94519 13.771 6.31875 13.8452 5.70001 13.7757V19.2H18.3V13.7757V13.7748ZM6.41011 4.8L4.22041 8.5917C4.00763 9.11743 4.00124 9.70412 4.20252 10.2344C4.40381 10.7646 4.79792 11.1993 5.30597 11.4514C5.81402 11.7034 6.39854 11.7544 6.94253 11.5939C7.48652 11.4335 7.94986 11.0735 8.23981 10.5861C8.54131 9.8328 9.60781 9.8328 9.91021 10.5861C10.077 11.0041 10.3652 11.3624 10.7378 11.6149C11.1103 11.8673 11.55 12.0023 12 12.0023C12.45 12.0023 12.8897 11.8673 13.2622 11.6149C13.6348 11.3624 13.923 11.0041 14.0898 10.5861C14.3913 9.8328 15.4578 9.8328 15.7602 10.5861C15.877 10.8736 16.052 11.1338 16.2742 11.3504C16.4964 11.5671 16.7611 11.7354 17.0515 11.8448C17.3419 11.9542 17.6518 12.0023 17.9617 11.9862C18.2716 11.9701 18.5748 11.89 18.8523 11.7511C19.1297 11.6121 19.3755 11.4173 19.574 11.1788C19.7725 10.9403 19.9196 10.6633 20.0059 10.3652C20.0923 10.0671 20.116 9.75444 20.0757 9.44675C20.0353 9.13906 19.9318 8.84304 19.7715 8.5773L17.589 4.8H6.41101H6.41011Z" fill="#525866"/>
</svg>
